<svg width="176" height="76" viewBox="0 0 176 76" fill="none" xmlns="http://www.w3.org/2000/svg">
<path d="M40.59 20.19C40.59 20.685 40.545 21.135 40.545 21.495H54.675V9.345H40.59V20.19ZM56.07 6.6C57.33 6.6 58.005 7.32 58.005 8.67V22.665C58.005 23.745 57.51 24.24 56.565 24.24H49.275V33.105H64.935C66.015 33.105 66.6 33.555 66.6 34.455C66.6 35.4 66.015 35.85 64.935 35.85H30.06C29.07 35.85 28.575 35.4 28.575 34.455C28.575 33.555 29.07 33.105 30.06 33.105H45.9V24.24H39.51C39.105 24.645 38.61 24.825 38.025 24.825H37.215V11.685C37.215 10.65 37.125 9.93 36.99 9.57C36.81 9.21 36.405 8.94 35.775 8.67C35.37 8.58 35.1 8.4 34.92 8.22C34.695 8.085 34.605 7.86 34.605 7.545C34.605 6.915 35.01 6.6 35.865 6.6H56.07ZM71.1626 11.19C70.0826 11.19 69.5426 10.74 69.5426 9.795C69.5426 8.895 70.0376 8.445 71.0276 8.445H89.2526C89.9276 8.445 90.4226 8.67 90.7826 9.075C91.0976 9.525 91.2326 9.975 91.1426 10.38C90.2426 14.61 88.9826 18.435 87.3626 21.81C85.6976 25.23 83.6726 28.155 81.2426 30.675C80.7926 31.17 80.2526 31.26 79.7126 30.9C79.0826 30.63 79.0376 30.135 79.5326 29.415C81.5126 26.58 83.1326 23.61 84.3926 20.55C85.6526 17.535 86.5526 14.43 87.0926 11.19H81.1526C79.4876 17.76 76.2926 23.43 71.6126 28.29C71.0276 28.875 70.4876 28.965 70.0376 28.515C69.4976 28.155 69.5876 27.525 70.2176 26.67C71.8826 24.375 73.3226 21.945 74.5826 19.335C75.7976 16.77 76.7876 14.07 77.5976 11.19H71.1626ZM97.1726 6.465C97.1726 5.61 96.9476 5.025 96.5876 4.71C96.1826 4.44 95.6426 4.215 94.9676 4.035C94.2926 3.9 93.7976 3.765 93.5276 3.585C93.2126 3.45 93.0776 3.225 93.0776 2.91C93.0776 2.28 93.5276 1.92 94.5176 1.92H98.6576C99.9176 1.92 100.548 2.55 100.548 3.765V16.545H106.488C107.568 16.545 108.108 17.04 108.108 17.94C108.108 18.885 107.568 19.335 106.488 19.335H100.548V36.84C100.548 39.54 99.6926 40.89 97.9826 40.89H97.1726V6.465ZM115.889 24.735H124.349V11.19H115.934V23.43C115.934 23.925 115.889 24.375 115.889 24.735ZM125.699 8.445C126.959 8.445 127.589 9.165 127.589 10.515V25.905C127.589 26.985 127.094 27.48 126.149 27.48H114.899C114.539 27.885 114.044 28.065 113.459 28.065H112.694V13.53C112.694 12.495 112.604 11.775 112.469 11.37C112.289 11.01 111.929 10.74 111.434 10.515C111.074 10.38 110.804 10.2 110.669 10.02C110.489 9.885 110.399 9.66 110.399 9.39C110.399 8.76 110.804 8.445 111.614 8.445H125.699ZM145.409 3.765V36.795C145.409 39.54 144.509 40.89 142.754 40.89H142.034V18.93H136.094V34.14C136.094 36.84 135.239 38.19 133.529 38.19H132.764V8.31C132.764 7.455 132.584 6.87 132.269 6.555C131.909 6.285 131.369 6.06 130.604 5.88C129.974 5.745 129.524 5.565 129.254 5.385C128.939 5.25 128.804 5.025 128.804 4.71C128.804 4.125 129.254 3.81 130.244 3.81H134.249C135.464 3.81 136.094 4.44 136.094 5.7V16.23H142.034V6.42C142.034 5.565 141.854 4.98 141.539 4.665C141.179 4.395 140.594 4.17 139.784 3.99C139.109 3.9 138.659 3.765 138.389 3.585C138.074 3.45 137.939 3.225 137.939 2.91C137.939 2.28 138.434 1.92 139.469 1.92H143.519C144.779 1.92 145.409 2.55 145.409 3.765Z" fill="white"/>
<path d="M9.14 56.28H5.64C4.54 56.28 3.56 56.06 2.72 55.58L3.22 54.42C4.3 54.74 5.18 54.9 5.86 54.9H9.14V56.28ZM11.26 59.46H6.14C5.4 59.62 4.82 59.9 4.42 60.34C3.76 61.02 3.44 61.78 3.44 62.58C3.44 63.36 3.7 63.98 4.22 64.46C4.74 64.94 5.32 65.18 6 65.18C6.66 65.18 7.24 64.94 7.76 64.46C8.26 63.98 8.52 63.36 8.52 62.58C8.52 62.34 8.44 62.06 8.3 61.76C8.14 61.48 7.9 61.2 7.6 60.92L8.78 60.08C9.14 60.3 9.44 60.64 9.72 61.12C9.98 61.62 10.12 62.1 10.12 62.58C10.12 63.72 9.72 64.66 8.92 65.4C8.1 66.16 7.12 66.54 6 66.54C4.86 66.54 3.88 66.16 3.08 65.4C2.24 64.66 1.84 63.72 1.84 62.58C1.84 61.48 2.28 60.52 3.18 59.7C3.26 59.62 3.36 59.54 3.48 59.46H0.7V58.12H11.26V59.46ZM17.76 62.06H14.7V71.34H13.1V53.32H14.7V60.6H17.76V62.06ZM31.985 62.52H22.425V57.76H29.985V55.72H22.365V54.4H31.605V59.08H24.045V61.2H31.985V62.52ZM35.605 65.78H27.925V71.74H26.285V65.78H18.645V64.4H35.605V65.78ZM51.6344 55.88H48.2544C47.1344 55.88 46.1744 55.66 45.3344 55.18L45.8144 54.04C46.8944 54.36 47.7744 54.52 48.4744 54.52H51.6344V55.88ZM53.8744 58.54H50.0344C48.6744 58.54 47.7344 58.84 47.1944 59.42C46.6344 60.02 46.3744 60.66 46.3744 61.34C46.3744 62.04 46.5944 62.58 47.0744 62.98C47.5144 63.4 48.0744 63.6 48.7344 63.6C49.3144 63.6 49.8344 63.4 50.2944 63C50.7344 62.6 50.9544 62.06 50.9544 61.34C50.9544 61.18 50.8944 60.96 50.7944 60.72C50.6744 60.48 50.4544 60.24 50.1344 59.96L51.3144 59.18C51.6944 59.5 51.9944 59.84 52.2144 60.2C52.4144 60.58 52.5344 60.96 52.5344 61.32C52.5344 62.42 52.1544 63.3 51.3944 63.96C50.6344 64.64 49.7544 64.96 48.7544 64.96C47.6344 64.96 46.6944 64.62 45.9344 63.92C45.1744 63.24 44.7944 62.38 44.7944 61.32C44.7944 60.46 45.1344 59.64 45.8144 58.86C45.8944 58.76 46.0144 58.66 46.1544 58.54H43.5544V57.24H53.8744V58.54ZM60.4144 60.76H57.1944V67.02H55.6144V53.32H57.1944V59.3H60.4144V60.76ZM57.4144 71.84H47.9344V66.48H49.5144V70.48H57.4144V71.84ZM77.0609 63.56H68.9409V54.76H70.4809V58H75.5209V54.76H77.0609V63.56ZM75.5209 62.2V59.34H70.4809V62.2H75.5209ZM82.6609 66.88H81.0809V59.76H77.7409V58.38H81.0809V53.32H82.6609V66.88ZM82.7809 71.84H73.0809V66.02H74.6609V70.48H82.7809V71.84ZM88.4261 67.84L87.3261 72.32H85.9461L86.4061 67.84H88.4261ZM109.106 54.68C108.606 55.54 107.926 56.32 107.086 57.04L111.466 59.18L110.606 60.36L105.806 57.98C104.286 58.96 102.386 59.78 100.066 60.44L99.2263 59.32C102.946 58.24 105.506 56.88 106.946 55.22H100.506V53.86H109.466C109.406 54.1 109.286 54.38 109.106 54.68ZM106.226 59.64V61.68H113.886V63.04H96.9263V61.68H104.586V59.64H106.226ZM108.566 64.22V65.56H104.386C103.486 65.56 102.586 65.36 101.706 64.96L102.246 63.84C103.146 64.1 103.926 64.22 104.566 64.22H108.566ZM111.346 67.78H108.826C109.286 68.26 109.526 68.84 109.526 69.52C109.526 70.38 109.146 71.1 108.426 71.66C107.686 72.24 106.666 72.52 105.366 72.52C104.066 72.52 103.066 72.24 102.346 71.66C101.606 71.1 101.246 70.38 101.246 69.52C101.246 68.84 101.466 68.26 101.946 67.78H99.4063V66.48H111.346V67.78ZM105.366 71.18C106.166 71.18 106.806 71.04 107.266 70.72C107.706 70.44 107.946 70.04 107.946 69.52C107.946 69.02 107.706 68.62 107.266 68.3C106.806 68 106.166 67.84 105.366 67.84C104.566 67.84 103.946 68 103.506 68.3C103.046 68.62 102.826 69.02 102.826 69.52C102.826 70.04 103.046 70.44 103.506 70.72C103.946 71.04 104.566 71.18 105.366 71.18ZM118.814 57.68C118.814 56.64 119.234 55.7 120.074 54.88C120.894 54.08 122.014 53.68 123.414 53.68C124.814 53.68 125.954 54.08 126.794 54.88C127.634 55.7 128.054 56.64 128.054 57.68C128.054 58.74 127.634 59.66 126.794 60.44C125.954 61.24 124.814 61.64 123.414 61.64C122.014 61.64 120.894 61.24 120.074 60.44C119.234 59.66 118.814 58.74 118.814 57.68ZM120.434 57.68C120.434 58.36 120.694 58.94 121.214 59.46C121.714 60 122.454 60.26 123.414 60.26C124.374 60.26 125.134 60 125.654 59.46C126.174 58.94 126.434 58.36 126.434 57.68C126.434 57.02 126.174 56.42 125.654 55.86C125.134 55.34 124.374 55.06 123.414 55.06C122.454 55.06 121.714 55.34 121.214 55.86C120.694 56.42 120.434 57.02 120.434 57.68ZM114.934 63.36H131.894V64.76H114.934V63.36ZM128.694 71.84H118.754V66.38H120.374V70.48H128.694V71.84ZM148.943 54.06C148.903 54.64 148.763 55.2 148.543 55.74L153.983 59.62L153.023 60.72L147.823 57C146.823 58.4 145.203 59.72 142.923 60.96L141.963 59.9C145.463 57.92 147.243 55.98 147.323 54.08V53.52H148.943V54.06ZM139.543 62.36H156.503V63.72H139.543V62.36ZM152.683 72.04H143.323V64.8H144.943V66.88H151.063V64.8H152.683V72.04ZM151.063 70.7V68.2H144.943V70.7H151.063ZM167.471 54.76C167.471 56.32 167.411 57.58 167.331 58.54C167.211 59.54 167.051 60.48 166.831 61.4H165.271C165.411 60.72 165.551 59.9 165.691 58.98C165.811 58.08 165.891 57.12 165.891 56.12H159.211V54.76H167.471ZM175.151 60.86H171.991V67.26H170.411V53.32H171.991V59.5H175.151V60.86ZM161.571 63.22V59.06H163.151V63.22C163.871 63.22 164.831 63.2 166.051 63.16C167.331 63.12 168.491 63 169.571 62.78V64.14C168.551 64.36 167.411 64.48 166.171 64.52C164.911 64.56 163.851 64.58 162.971 64.58H157.751V63.22H161.571ZM171.931 71.84H162.051V66.3H163.611V70.44H171.931V71.84Z" fill="white"/>
</svg>
